# xmcd
#
# Track frame offsets:
#	150
#	8940
#	18687
#	29640
#	40812
#	51540
#	61215
#	73137
#	83190
#	92560
#	103890
#	115137
#	126612
#	138695
#	150762
#
# Disc length: 2161 seconds
#
# Revision: 0
# Processed by: cddbd v1.4PL0 Copyright (c) Steve Scherf et al.
#
# Submitted via: MusicManager v6.0.0.0
#
DISCID=d7086f0f
DTITLE=George Jones - Sings Country Classics Disc 2
DYEAR=1900
DGENRE=country
TTITLE0=Take Me Back to Tulsa
TTITLE1=Rollin' in My Sweet Baby's Arms
TTITLE2=Mansion on the Hill
TTITLE3=Blue Moon of Kentucky
TTITLE4=Take These Chains from my Heart
TTITLE5=Sweet Dreams
TTITLE6=Peace in the Valley
TTITLE7=It's a Sin
TTITLE8=Wings of a Dove
TTITLE9=Don't Let the Stars Get in Your Eyes
TTITLE10=You Win Again
TTITLE11=Talk Back Trembling Lips
TTITLE12=Faded Love
TTITLE13=Beggar to a King
TTITLE14=Your Cheatin' Heart
EXTD=
EXTT0=
EXTT1=
EXTT2=
EXTT3=
EXTT4=
EXTT5=
EXTT6=
EXTT7=
EXTT8=
EXTT9=
EXTT10=
EXTT11=
EXTT12=
EXTT13=
EXTT14=
PLAYORDER=
